<svg version="1.1" id="Layer_1" xmlns="http://www.w3.org/2000/svg" xmlns:xlink="http://www.w3.org/1999/xlink" x="0px" y="0px"
	 width="100%" viewBox="0 0 500 500" enable-background="new 0 0 500 500" xml:space="preserve">
<path fill="#0097B2" opacity="1.000000" stroke="none" 
	d="
M337.000000,501.000000 
	C224.666687,501.000000 112.833389,501.000000 1.000060,501.000000 
	C1.000040,334.333405 1.000040,167.666794 1.000020,1.000149 
	C167.666565,1.000100 334.333130,1.000100 500.999756,1.000050 
	C500.999847,167.666519 500.999847,334.333038 500.999939,500.999786 
	C446.500000,501.000000 392.000000,501.000000 337.000000,501.000000 
M289.504761,411.034576 
	C327.089264,426.544037 378.155396,411.323700 392.845917,380.010956 
	C384.089142,375.646454 375.325806,371.275269 366.559357,366.910339 
	C358.541809,362.918335 358.540283,362.921295 351.729034,368.944641 
	C338.910095,380.280457 318.622528,381.693878 304.509125,372.125580 
	C296.539490,366.722534 293.419495,359.025024 293.875702,348.945618 
	C328.049255,348.945618 361.754547,348.945618 396.208008,348.945618 
	C395.760406,341.686005 395.717896,335.030884 394.874908,328.478729 
	C392.629242,311.024048 385.695465,295.903381 371.640472,284.670837 
	C347.618591,265.472961 309.909882,262.368225 282.623444,277.280823 
	C251.839233,294.105042 236.305405,328.745087 245.305893,361.530762 
	C251.721725,384.901489 267.320129,400.513672 289.504761,411.034576 
M299.375031,196.157120 
	C292.473480,189.430664 291.283508,180.545532 291.120209,171.745331 
	C290.693665,148.757507 290.856171,125.758751 290.785065,102.764351 
	C290.779633,101.007950 290.784332,99.251518 290.784332,97.545158 
	C274.099182,97.545158 258.201904,97.545158 243.026581,97.545158 
	C243.026581,128.898590 241.974518,159.911102 243.382065,190.811554 
	C244.385513,212.840607 256.115967,229.273575 278.072845,236.110855 
	C304.845337,244.447662 331.907745,244.394318 358.698181,236.095734 
	C372.280853,231.888321 382.726349,223.502945 388.575897,210.037262 
	C393.393280,198.947556 394.689636,187.241409 394.768127,175.377792 
	C394.931274,150.717102 394.825867,126.054596 394.806885,101.392860 
	C394.805908,100.117767 394.581329,98.842865 394.454712,97.503075 
	C378.235718,97.503075 362.341522,97.503075 346.067657,97.503075 
	C346.067657,99.649246 346.070648,101.454483 346.067230,103.259705 
	C346.025146,125.421440 346.252014,147.589020 345.772583,169.741302 
	C345.631287,176.270050 344.465149,183.141083 342.072449,189.183578 
	C336.442749,203.400879 313.050446,207.263657 299.375031,196.157120 
M194.144119,240.780151 
	C204.773010,238.227142 215.743378,236.589035 224.959518,229.360458 
	C219.533661,218.240204 214.154236,207.215103 208.775269,196.190994 
	C189.045120,205.712463 172.176010,204.033951 160.809692,191.565292 
	C149.993286,179.699921 147.942596,161.768082 157.194168,148.737228 
	C161.069366,143.279022 166.788010,138.069016 172.838959,135.440109 
	C184.896133,130.201752 197.180222,132.626236 208.655869,139.312485 
	C214.246460,128.021576 219.599915,117.209587 225.140213,106.020271 
	C221.464798,103.878662 218.377060,101.429230 214.863770,100.134636 
	C185.331253,89.252419 156.984665,89.558281 130.490005,108.994240 
	C95.213676,134.872238 89.261749,182.976074 117.933678,214.692596 
	C138.172745,237.080795 163.574371,245.369858 194.144119,240.780151 
M116.238464,383.499817 
	C116.238464,393.259247 116.238464,403.018677 116.238464,412.648193 
	C132.911942,412.648193 148.821945,412.648193 164.970612,412.648193 
	C164.970612,410.479706 164.970535,408.662292 164.970627,406.844879 
	C164.971664,384.514526 164.313690,362.158691 165.175659,339.861633 
	C165.906921,320.946045 177.402679,309.938995 194.675873,310.306458 
	C203.222397,310.488251 211.509232,312.163605 219.076111,317.832672 
	C225.858536,304.088684 232.511597,290.606903 239.137405,277.180328 
	C215.749435,260.928192 189.527283,266.094391 164.861206,292.100098 
	C164.861206,285.064362 164.861206,278.727448 164.861206,272.604980 
	C148.279449,272.604980 132.396957,272.604980 116.238464,272.604980 
	C116.238464,309.533600 116.238464,346.016693 116.238464,383.499817 
z"/>
<path fill="#FDFEFF" opacity="1.000000" stroke="none" 
	d="
M289.146149,410.902679 
	C267.320129,400.513672 251.721725,384.901489 245.305893,361.530762 
	C236.305405,328.745087 251.839233,294.105042 282.623444,277.280823 
	C309.909882,262.368225 347.618591,265.472961 371.640472,284.670837 
	C385.695465,295.903381 392.629242,311.024048 394.874908,328.478729 
	C395.717896,335.030884 395.760406,341.686005 396.208008,348.945618 
	C361.754547,348.945618 328.049255,348.945618 293.875702,348.945618 
	C293.419495,359.025024 296.539490,366.722534 304.509125,372.125580 
	C318.622528,381.693878 338.910095,380.280457 351.729034,368.944641 
	C358.540283,362.921295 358.541809,362.918335 366.559357,366.910339 
	C375.325806,371.275269 384.089142,375.646454 392.845917,380.010956 
	C378.155396,411.323700 327.089264,426.544037 289.146149,410.902679 
M317.373199,299.932556 
	C304.322784,301.416809 295.089539,310.520447 295.305145,321.845490 
	C312.803955,321.845490 330.304138,321.845490 347.842987,321.845490 
	C345.916290,306.540924 334.944061,298.512573 317.373199,299.932556 
z"/>
<path fill="#FDFEFE" opacity="1.000000" stroke="none" 
	d="
M299.628845,196.422638 
	C313.050446,207.263657 336.442749,203.400879 342.072449,189.183578 
	C344.465149,183.141083 345.631287,176.270050 345.772583,169.741302 
	C346.252014,147.589020 346.025146,125.421440 346.067230,103.259705 
	C346.070648,101.454483 346.067657,99.649246 346.067657,97.503075 
	C362.341522,97.503075 378.235718,97.503075 394.454712,97.503075 
	C394.581329,98.842865 394.805908,100.117767 394.806885,101.392860 
	C394.825867,126.054596 394.931274,150.717102 394.768127,175.377792 
	C394.689636,187.241409 393.393280,198.947556 388.575897,210.037262 
	C382.726349,223.502945 372.280853,231.888321 358.698181,236.095734 
	C331.907745,244.394318 304.845337,244.447662 278.072845,236.110855 
	C256.115967,229.273575 244.385513,212.840607 243.382065,190.811554 
	C241.974518,159.911102 243.026581,128.898590 243.026581,97.545158 
	C258.201904,97.545158 274.099182,97.545158 290.784332,97.545158 
	C290.784332,99.251518 290.779633,101.007950 290.785065,102.764351 
	C290.856171,125.758751 290.693665,148.757507 291.120209,171.745331 
	C291.283508,180.545532 292.473480,189.430664 299.628845,196.422638 
z"/>
<path fill="#FDFEFF" opacity="1.000000" stroke="none" 
	d="
M193.713715,240.849579 
	C163.574371,245.369858 138.172745,237.080795 117.933678,214.692596 
	C89.261749,182.976074 95.213676,134.872238 130.490005,108.994240 
	C156.984665,89.558281 185.331253,89.252419 214.863770,100.134636 
	C218.377060,101.429230 221.464798,103.878662 225.140213,106.020271 
	C219.599915,117.209587 214.246460,128.021576 208.655869,139.312485 
	C197.180222,132.626236 184.896133,130.201752 172.838959,135.440109 
	C166.788010,138.069016 161.069366,143.279022 157.194168,148.737228 
	C147.942596,161.768082 149.993286,179.699921 160.809692,191.565292 
	C172.176010,204.033951 189.045120,205.712463 208.775269,196.190994 
	C214.154236,207.215103 219.533661,218.240204 224.959518,229.360458 
	C215.743378,236.589035 204.773010,238.227142 193.713715,240.849579 
z"/>
<path fill="#FDFEFE" opacity="1.000000" stroke="none" 
	d="
M116.238464,382.999817 
	C116.238464,346.016693 116.238464,309.533600 116.238464,272.604980 
	C132.396957,272.604980 148.279449,272.604980 164.861206,272.604980 
	C164.861206,278.727448 164.861206,285.064362 164.861206,292.100098 
	C189.527283,266.094391 215.749435,260.928192 239.137405,277.180328 
	C232.511597,290.606903 225.858536,304.088684 219.076111,317.832672 
	C211.509232,312.163605 203.222397,310.488251 194.675873,310.306458 
	C177.402679,309.938995 165.906921,320.946045 165.175659,339.861633 
	C164.313690,362.158691 164.971664,384.514526 164.970627,406.844879 
	C164.970535,408.662292 164.970612,410.479706 164.970612,412.648193 
	C148.821945,412.648193 132.911942,412.648193 116.238464,412.648193 
	C116.238464,403.018677 116.238464,393.259247 116.238464,382.999817 
z"/>
<path fill="#0298B3" opacity="1.000000" stroke="none" 
	d="
M317.792694,299.903015 
	C334.944061,298.512573 345.916290,306.540924 347.842987,321.845490 
	C330.304138,321.845490 312.803955,321.845490 295.305145,321.845490 
	C295.089539,310.520447 304.322784,301.416809 317.792694,299.903015 
z"/>
</svg>